<?xml version="1.0" encoding="utf-8"?>
<!-- Generator: Adobe Illustrator 22.1.0, SVG Export Plug-In . SVG Version: 6.00 Build 0)  -->
<svg version="1.1" id="Слой_1" xmlns="http://www.w3.org/2000/svg" xmlns:xlink="http://www.w3.org/1999/xlink" x="0px" y="0px"
	 viewBox="0 0 49 51" style="enable-background:new 0 0 49 51;" xml:space="preserve">
<style type="text/css">
	.st0{fill:#FFCE1E;}
	.st1{fill:#FFFFFF;stroke:#FFCE1E;stroke-width:2;stroke-miterlimit:10;}
</style>
<path class="st0" d="M41,0.1H8c-4.4,0-8,3.6-8,8v33.1c0,4.4,3.6,8,8,8h33c4.4,0,8-3.6,8-8V8.1C49,3.7,45.4,0.1,41,0.1z"/>
<path class="st1" d="M29.6,7.8c-1.3-1.1-3.3-0.9-4.4,0.4l-6.8,8.1l-2.7-2.7c-1.2-1.2-3.2-1.2-4.4-0.1c-1.2,1.2-1.3,3.1-0.1,4.4
	l3.4,3.4c0,0,0.1,0.1,0.1,0.1c1,1,2.4,1.5,3.8,1.5c0.1,0,0.2,0,0.4,0c1.5-0.1,2.9-0.8,3.9-2l7.3-8.7C31.1,10.9,30.9,8.9,29.6,7.8z"
	/>
<path class="st1" d="M37.4,18.7h-9.3c-1.7,0-3.1,1.4-3.1,3c0,1.7,1.4,3,3.1,3h9.3c1.7,0,3.1-1.4,3.1-3
	C40.6,20.1,39.2,18.7,37.4,18.7z"/>
<path class="st1" d="M25.6,23.6c-1.3-1.1-3.3-0.9-4.4,0.4l-6.8,8.1l-2.7-2.7c-1.2-1.2-3.2-1.2-4.4-0.1C6,30.5,6,32.5,7.2,33.7
	l3.4,3.4c0,0,0.1,0.1,0.1,0.1c1,1,2.4,1.5,3.8,1.5c0.1,0,0.2,0,0.4,0c1.5-0.1,2.9-0.8,3.9-2L26,28C27.1,26.7,26.9,24.7,25.6,23.6z"
	/>
<path class="st1" d="M33.4,34.5h-9.3c-1.7,0-3.1,1.4-3.1,3c0,1.7,1.4,3,3.1,3h9.3c1.7,0,3.1-1.4,3.1-3
	C36.6,35.8,35.2,34.5,33.4,34.5z"/>
</svg>
