<?xml version="1.0" encoding="utf-8"?>
<!-- Generator: Adobe Illustrator 22.1.0, SVG Export Plug-In . SVG Version: 6.00 Build 0)  -->
<svg version="1.1" id="Слой_1" xmlns="http://www.w3.org/2000/svg" xmlns:xlink="http://www.w3.org/1999/xlink" x="0px" y="0px"
	 viewBox="0 0 49 50" style="enable-background:new 0 0 49 50;" xml:space="preserve">
<style type="text/css">
	.st0{fill:#FF1E1E;}
	.st1{fill:#FFFFFF;}
</style>
<path class="st0" d="M41,0H8C3.6,0,0,3.6,0,8v33.1c0,4.4,3.6,8,8,8h33c4.4,0,8-3.6,8-8V8C49,3.6,45.4,0,41,0z"/>
<path class="st1" d="M12.5,20c1.3,0,2.2,0.4,2.7,1.2c0.5,0.8,0.7,1.9,0.7,3.3v5c0,0.3-0.1,0.6-0.3,0.9c-0.2,0.2-0.5,0.3-0.8,0.3
	c-0.3,0-0.6-0.1-0.8-0.3c-0.2-0.2-0.3-0.5-0.3-0.9v-5c0-0.7-0.1-1.3-0.4-1.7c-0.3-0.4-0.8-0.6-1.5-0.6c-0.7,0-1.3,0.2-1.7,0.7
	c-0.4,0.4-0.6,1-0.6,1.6v5c0,0.3-0.1,0.6-0.3,0.9c-0.2,0.2-0.5,0.3-0.8,0.3c-0.3,0-0.6-0.1-0.8-0.3C7.1,30.1,7,29.8,7,29.5V17.4
	c0-0.3,0.1-0.6,0.3-0.8c0.2-0.2,0.5-0.4,0.8-0.4c0.3,0,0.6,0.1,0.8,0.4c0.2,0.2,0.3,0.5,0.3,0.8v4.3c0.4-0.5,0.8-0.9,1.3-1.2
	C11.2,20.2,11.8,20,12.5,20z M18.8,33.3c-0.2,0-0.5-0.1-0.7-0.3c-0.2-0.2-0.3-0.4-0.3-0.7c0-0.2,0-0.3,0.1-0.5l7.9-16.2
	c0.1-0.2,0.2-0.3,0.4-0.4c0.2-0.1,0.3-0.2,0.5-0.2c0.2,0,0.5,0.1,0.7,0.3c0.2,0.2,0.3,0.4,0.3,0.7c0,0.2,0,0.3-0.1,0.5l-7.9,16.2
	c-0.1,0.2-0.2,0.3-0.4,0.4C19.2,33.2,19,33.3,18.8,33.3z M41.6,20.2c0.3,0,0.6,0.1,0.8,0.4c0.2,0.2,0.3,0.5,0.3,0.9
	c0,0.1,0,0.3-0.1,0.4l-3,8c-0.1,0.2-0.2,0.4-0.4,0.6c-0.2,0.1-0.4,0.2-0.6,0.2l-0.2,0c-0.4,0-0.8-0.3-1-0.7l-1.7-4.8l-1.6,4.8
	c-0.2,0.5-0.6,0.7-1,0.7l-0.2,0c-0.2,0-0.5-0.1-0.7-0.2c-0.2-0.1-0.3-0.3-0.4-0.6l-3-8c-0.1-0.1-0.1-0.3-0.1-0.4
	c0-0.3,0.1-0.6,0.3-0.8c0.2-0.2,0.5-0.4,0.9-0.4c0.3,0,0.5,0.1,0.7,0.2c0.2,0.1,0.3,0.3,0.4,0.5l2.1,5.7l1.5-4.2
	c0.2-0.5,0.6-0.7,1.1-0.7c0.3,0,0.5,0.1,0.6,0.2c0.2,0.1,0.3,0.3,0.4,0.5l1.5,4.1l2.1-5.6c0.1-0.2,0.2-0.4,0.4-0.5
	C41,20.3,41.3,20.2,41.6,20.2z"/>
</svg>
