<?xml version="1.0" encoding="utf-8"?>
<!-- Generator: Adobe Illustrator 22.1.0, SVG Export Plug-In . SVG Version: 6.00 Build 0)  -->
<svg version="1.1" id="Слой_1" xmlns="http://www.w3.org/2000/svg" xmlns:xlink="http://www.w3.org/1999/xlink" x="0px" y="0px"
	 viewBox="0 0 49 50" style="enable-background:new 0 0 49 50;" xml:space="preserve">
<style type="text/css">
	.st0{fill:#1EBBFF;}
	.st1{fill:#FFFFFF;}
</style>
<path class="st0" d="M40.9,0H8.1c-4.4,0-8,3.6-8,8v32.9c0,4.4,3.6,8,8,8h32.8c4.4,0,8-3.6,8-8V8C48.9,3.6,45.3,0,40.9,0z"/>
<path class="st1" d="M24.9,29.7c0.1,0.2,0.1,0.4,0.1,0.6c0,0.5-0.2,0.9-0.5,1.2c-0.3,0.3-0.7,0.4-1.1,0.4c-0.3,0-0.6-0.1-0.9-0.3
	c-0.3-0.2-0.4-0.5-0.6-0.8l-1.4-3.3h-8l-1.4,3.3c-0.1,0.3-0.3,0.6-0.6,0.8c-0.3,0.2-0.5,0.3-0.8,0.3c-0.5,0-0.8-0.1-1.1-0.4
	c-0.2-0.3-0.4-0.6-0.4-1c0-0.2,0-0.3,0.1-0.5l6.7-16.1c0.1-0.4,0.4-0.6,0.6-0.8c0.3-0.2,0.6-0.3,1-0.2c0.3,0,0.6,0.1,0.9,0.3
	c0.3,0.2,0.5,0.4,0.6,0.8L24.9,29.7z M14,24.5h5.4l-2.7-6.3L14,24.5z M38.9,22.4c0.4,0,0.8,0.1,1.1,0.4c0.3,0.3,0.4,0.6,0.4,1.1
	s-0.1,0.8-0.4,1.1c-0.3,0.3-0.6,0.4-1.1,0.4h-3.8v3.5c0,0.5-0.2,0.9-0.5,1.2c-0.3,0.3-0.7,0.5-1.2,0.5c-0.5,0-0.9-0.2-1.3-0.5
	c-0.3-0.3-0.5-0.7-0.5-1.2v-3.5h-3.7c-0.4,0-0.8-0.1-1.1-0.4c-0.3-0.3-0.4-0.6-0.4-1.1s0.1-0.8,0.4-1.1c0.3-0.3,0.6-0.4,1.1-0.4h3.7
	v-4c0-0.5,0.2-0.9,0.5-1.2c0.3-0.3,0.8-0.5,1.3-0.5c0.5,0,0.9,0.2,1.2,0.5c0.3,0.3,0.5,0.7,0.5,1.2v4H38.9z"/>
</svg>
